HIERARCHY
ROOT root
{
	OFFSET	0	13.1	24.9
	CHANNELS 6  Xposition Yposition Zposition Xrotation Yrotation Zrotation
	JOINT spine_1
	{
		OFFSET	0	9.99999	0
		CHANNELS 3  Xrotation Yrotation Zrotation
		JOINT spine_2
		{
			OFFSET	0	112	-10
			CHANNELS 3  Xrotation Yrotation Zrotation
			JOINT spine_3
			{
				OFFSET	0	206.5	19.3
				CHANNELS 3  Xrotation Yrotation Zrotation
				JOINT spine_4
				{
					OFFSET	0	110.4	14.6
					CHANNELS 3  Xrotation Yrotation Zrotation
					JOINT neck_1
					{
						OFFSET	0	71.8	-50.3
						CHANNELS 3  Xrotation Yrotation Zrotation
						JOINT neck_2
						{
							OFFSET	0	86.2	-25.8
							CHANNELS 3  Xrotation Yrotation Zrotation
							JOINT head_ee
							{
								OFFSET	0	179.8	-8.7
								CHANNELS 3  Xrotation Yrotation Zrotation
								End Site
								{
									OFFSET	1	0	0
								}
							}
						}
					}
					JOINT left_clavicle
					{
						OFFSET	-43.2	22.4	-70.8
						CHANNELS 3  Xrotation Yrotation Zrotation
						JOINT left_shoulder
						{
							OFFSET	-93.9	-5.79999	48.7
							CHANNELS 3  Xrotation Yrotation Zrotation
							JOINT left_elbow
							{
								OFFSET	-291.4	-30.8	15.2
								CHANNELS 3  Xrotation Yrotation Zrotation
								JOINT left_lowarm_twist
								{
									OFFSET	-110.7	-3.89999	13.6
									CHANNELS 3  Xrotation Yrotation Zrotation
									JOINT left_hand
									{
										OFFSET	-110.7	-3.89999	13.6
										CHANNELS 3  Xrotation Yrotation Zrotation
										JOINT left_ee
										{
											OFFSET	-80.8	-5.10001	12.1
											CHANNELS 3  Xrotation Yrotation Zrotation
											End Site
											{
												OFFSET	1	0	0
											}
										}
									}
								}
							}
						}
					}
					JOINT right_clavicle
					{
						OFFSET	43.2	22.4	-70.8
						CHANNELS 3  Xrotation Yrotation Zrotation
						JOINT right_shoulder
						{
							OFFSET	93.9	-5.79999	48.7
							CHANNELS 3  Xrotation Yrotation Zrotation
							JOINT right_elbow
							{
								OFFSET	291.4	-30.8	15.2
								CHANNELS 3  Xrotation Yrotation Zrotation
								JOINT right_lowarm_twist
								{
									OFFSET	110.7	-3.89999	13.6
									CHANNELS 3  Xrotation Yrotation Zrotation
									JOINT right_hand
									{
										OFFSET	110.7	-3.89999	13.6
										CHANNELS 3  Xrotation Yrotation Zrotation
										JOINT right_ee
										{
											OFFSET	80.8	-5.10001	12.1
											CHANNELS 3  Xrotation Yrotation Zrotation
											End Site
											{
												OFFSET	1	0	0
											}
										}
									}
								}
							}
						}
					}
				}
			}
		}
	}
	JOINT left_hip
	{
		OFFSET	-82.8	-127.5	0.300001
		CHANNELS 3  Xrotation Yrotation Zrotation
		JOINT left_knee
		{
			OFFSET	-28.2	-396.7	2.2
			CHANNELS 3  Xrotation Yrotation Zrotation
			JOINT left_ankle
			{
				OFFSET	-11.7	-411.3	35.4
				CHANNELS 3  Xrotation Yrotation Zrotation
				JOINT left_toes
				{
					OFFSET	0	-60	-88.6
					CHANNELS 3  Xrotation Yrotation Zrotation
					JOINT left_foot_ee
					{
						OFFSET	-22.5	-16.5	-42.2
						CHANNELS 3  Xrotation Yrotation Zrotation
						End Site
						{
							OFFSET	1	0	0
						}
					}
				}
			}
		}
	}
	JOINT right_hip
	{
		OFFSET	82.8	-127.5	0.300001
		CHANNELS 3  Xrotation Yrotation Zrotation
		JOINT right_knee
		{
			OFFSET	28.2	-396.7	2.2
			CHANNELS 3  Xrotation Yrotation Zrotation
			JOINT right_ankle
			{
				OFFSET	11.7	-411.3	35.4
				CHANNELS 3  Xrotation Yrotation Zrotation
				JOINT right_toes
				{
					OFFSET	0	-60	-88.6
					CHANNELS 3  Xrotation Yrotation Zrotation
					JOINT right_foot_ee
					{
						OFFSET	22.5	-16.5	-42.2
						CHANNELS 3  Xrotation Yrotation Zrotation
						End Site
						{
							OFFSET	1	0	0
						}
					}
				}
			}
		}
	}
}
MOTION
Frames: 13
Frame Time: 0.02
3177.02 653.055 -1669.29 0.483504170387 51.9938058922 -2.02589836503 -0.129494 0.802069 3.40792 -0.123223 0.583722 3.45198 -0.0839902 -0.159795 3.49728 -0.100839 0.394199 3.47869 -8.08129 9.57263 -1.25021 -8.1119 18.7589 0.877757 -0.0 0.0 -0.0 -3.82337 21.2472 -3.02321 -22.0739 -22.2147 69.8538 0.391681 -10.9807 0.0376483 -38.2385 -2.76581 3.9313 1.78853 1.17465 12.5046 -0.0 0.0 -0.0 12.1984 26.1203 -23.8206 -5.05526 33.6579 -55.7185 1.77651 41.345 -0.670358 18.2695 -0.277965 2.30734 1.7529 11.7174 -6.85194 0.0 0.0 0.0 19.5829 1.46497 -6.1484 -0.358443 0.0145935 0.0530709 0.591685 13.763 -0.0868465 -32.8196 0.0 0.0 -0.0 0.0 -0.0 -18.1246 31.1155 -0.281435 -12.3107 -0.308004 -1.86054 40.0905 -6.91751 4.86847 19.4982 -0.0 -0.0 0.0 0.0 0.0 
3154.03198117 649.096 -1669.79575727 1.26194214923 52.6357384341 -2.3876530082 0.00809862 0.78998 3.42218 0.0144322 0.570752 3.46544 0.0527698 -0.166963 3.5081 0.0358094 0.388826 3.49051 -9.79915 9.09314 -2.50046 -9.88211 18.7973 -0.178275 -0.0 0.0 -0.0 -3.3935 21.3108 -2.38823 -19.8422 -23.0193 69.344 0.296416 -8.35356 0.0216466 -37.6249 -2.70219 3.88491 2.15038 1.71302 15.1999 -0.0 0.0 -0.0 11.9934 26.9836 -23.2514 -4.87038 32.6716 -57.1837 1.52939 37.1455 -0.513914 18.5675 -0.27636 2.34537 1.77516 10.0132 -7.74981 0.0 0.0 0.0 19.9341 0.754295 -5.1973 -3.25501 0.120267 0.484997 0.075745 14.7107 -0.01115 -31.8197 0.0 0.0 -0.0 0.0 -0.0 -17.9304 30.7007 -0.426401 -14.609 -0.320891 -2.2129 39.3285 -5.75339 4.79957 19.255 -0.0 -0.0 0.0 0.0 0.0 
3154.031682 649.096 -1669.78197091 1.26293421758 52.6700912722 -2.38890093176 0.00809862 0.78998 3.42218 0.0144322 0.570752 3.46544 0.0527698 -0.166963 3.5081 0.0358094 0.388826 3.49051 -9.79915 9.09314 -2.50046 -9.88211 18.7973 -0.178275 -0.0 0.0 -0.0 -3.3935 21.3108 -2.38823 -19.8422 -23.0193 69.344 0.296416 -8.35356 0.0216466 -37.6249 -2.70219 3.88491 2.15038 1.71302 15.1999 -0.0 0.0 -0.0 11.9934 26.9836 -23.2514 -4.87038 32.6716 -57.1837 1.52939 37.1455 -0.513914 18.5675 -0.27636 2.34537 1.77516 10.0132 -7.74981 0.0 0.0 0.0 19.9341 0.754295 -5.1973 -3.25501 0.120267 0.484997 0.075745 14.7107 -0.01115 -31.8197 0.0 0.0 -0.0 0.0 -0.0 -17.9304 30.7007 -0.426401 -14.609 -0.320891 -2.2129 39.3285 -5.75339 4.79957 19.255 -0.0 -0.0 0.0 0.0 0.0 
3154.03069868 649.096 -1669.7336496 1.26642727405 52.7904946948 -2.39329032848 0.00809862 0.78998 3.42218 0.0144322 0.570752 3.46544 0.0527698 -0.166963 3.5081 0.0358094 0.388826 3.49051 -9.79915 9.09314 -2.50046 -9.88211 18.7973 -0.178275 -0.0 0.0 -0.0 -3.3935 21.3108 -2.38823 -19.8422 -23.0193 69.344 0.296416 -8.35356 0.0216466 -37.6249 -2.70219 3.88491 2.15038 1.71302 15.1999 -0.0 0.0 -0.0 11.9934 26.9836 -23.2514 -4.87038 32.6716 -57.1837 1.52939 37.1455 -0.513914 18.5675 -0.27636 2.34537 1.77516 10.0132 -7.74981 0.0 0.0 0.0 19.9341 0.754295 -5.1973 -3.25501 0.120267 0.484997 0.075745 14.7107 -0.01115 -31.8197 0.0 0.0 -0.0 0.0 -0.0 -17.9304 30.7007 -0.426401 -14.609 -0.320891 -2.2129 39.3285 -5.75339 4.79957 19.255 -0.0 -0.0 0.0 0.0 0.0 
3154.02840039 649.096 -1669.5919061 1.27681797136 53.1436534507 -2.40630646798 0.00809862 0.78998 3.42218 0.0144322 0.570752 3.46544 0.0527698 -0.166963 3.5081 0.0358094 0.388826 3.49051 -9.79915 9.09314 -2.50046 -9.88211 18.7973 -0.178275 -0.0 0.0 -0.0 -3.3935 21.3108 -2.38823 -19.8422 -23.0193 69.344 0.296416 -8.35356 0.0216466 -37.6249 -2.70219 3.88491 2.15038 1.71302 15.1999 -0.0 0.0 -0.0 11.9934 26.9836 -23.2514 -4.87038 32.6716 -57.1837 1.52939 37.1455 -0.513914 18.5675 -0.27636 2.34537 1.77516 10.0132 -7.74981 0.0 0.0 0.0 19.9341 0.754295 -5.1973 -3.25501 0.120267 0.484997 0.075745 14.7107 -0.01115 -31.8197 0.0 0.0 -0.0 0.0 -0.0 -17.9304 30.7007 -0.426401 -14.609 -0.320891 -2.2129 39.3285 -5.75339 4.79957 19.255 -0.0 -0.0 0.0 0.0 0.0 
3095.58087345 654.885 -1681.45698262 2.304790997 52.786682685 -3.85761348747 0.191189 0.811613 3.67701 0.198525 0.576157 3.72112 0.239891 -0.202933 3.75994 0.220382 0.393 3.74486 -12.4798 8.23799 -1.13101 -12.6357 16.3632 1.33168 -0.0 0.0 -0.0 -3.52859 21.0689 -2.63467 -17.7862 -24.1353 68.01 0.318645 -8.97017 0.0249946 -37.3226 -2.67103 3.86181 2.17018 1.32309 15.184 -0.0 0.0 -0.0 11.4296 27.6514 -21.8913 -7.31509 30.9566 -60.6958 1.20373 30.8062 -0.331644 17.5035 -0.28118 2.20955 2.58841 8.03127 -14.2081 0.0 0.0 0.0 18.5018 1.34538 -3.07926 -9.37397 0.270991 1.41149 8.13728 15.7903 -1.17471 -28.6291 0.0 0.0 -0.0 0.0 -0.0 -19.0635 32.0068 0.218913 -19.2551 -0.303758 -2.92536 35.4914 -5.62983 4.4459 20.1051 -0.0 -0.0 0.0 0.0 0.0 
3095.67881674 654.885 -1682.09541706 2.28130350403 52.337609676 -3.82803298009 0.191189 0.811613 3.67701 0.198525 0.576157 3.72112 0.239891 -0.202933 3.75994 0.220382 0.393 3.74486 -12.4798 8.23799 -1.13101 -12.6357 16.3632 1.33168 -0.0 0.0 -0.0 -3.52859 21.0689 -2.63467 -17.7862 -24.1353 68.01 0.318645 -8.97017 0.0249946 -37.3226 -2.67103 3.86181 2.17018 1.32309 15.184 -0.0 0.0 -0.0 11.4296 27.6514 -21.8913 -7.31509 30.9566 -60.6958 1.20373 30.8062 -0.331644 17.5035 -0.28118 2.20955 2.58841 8.03127 -14.2081 0.0 0.0 0.0 18.5018 1.34538 -3.07926 -9.37397 0.270991 1.41149 8.13728 15.7903 -1.17471 -28.6291 0.0 0.0 -0.0 0.0 -0.0 -19.0635 32.0068 0.218913 -19.2551 -0.303758 -2.92536 35.4914 -5.62983 4.4459 20.1051 -0.0 -0.0 0.0 0.0 0.0 
3071.08654156 663.044 -1686.34504273 2.8091502216 52.1286336569 -4.66237185225 0.151965 0.682465 3.76362 0.159735 0.44177 3.79935 0.193008 -0.353992 3.80852 0.17286 0.251484 3.81665 -14.0086 7.60227 -2.07357 -14.1879 15.7647 0.456459 -0.0 0.0 -0.0 -3.3209 21.4397 -2.25686 -16.3699 -25.4953 66.9541 0.360426 -10.1234 0.0319242 -37.7841 -2.71864 3.89701 2.51652 1.76516 17.7646 -0.0 0.0 -0.0 11.0317 27.8854 -20.9649 -6.91738 30.1947 -62.9255 0.986301 26.0389 -0.228064 17.1719 -0.282166 2.16721 2.20057 6.39688 -12.2269 0.0 0.0 0.0 17.8372 0.0708376 -1.10106 -13.195 0.314636 1.99605 13.1109 16.0716 -1.86259 -28.2142 0.0 0.0 -0.0 0.0 -0.0 -18.9713 32.2986 0.154196 -21.1522 -0.280165 -3.21547 31.2502 -8.10692 4.02294 17.4912 -0.0 -0.0 0.0 0.0 0.0 
3039.59629344 669.572 -1698.27777977 5.03645468751 51.5683200895 -7.04709452196 -0.104305 0.80611 3.88532 -0.0960811 0.557439 3.92865 -0.0528406 -0.284371 3.95775 -0.074529 0.34375 3.95305 -15.4563 7.59715 -0.757186 -15.6648 14.9871 1.89808 -0.0 0.0 -0.0 -3.09535 20.5294 -2.11475 -15.2636 -25.5041 65.6141 0.376486 -10.5645 0.034808 -37.3026 -2.66897 3.86028 2.67756 1.62163 18.8398 -0.0 0.0 -0.0 11.0793 27.5117 -21.1171 -8.34081 29.631 -65.1418 0.81303 21.937 -0.157576 16.6338 -0.283245 2.09849 2.27721 4.68671 -13.4818 0.0 0.0 0.0 15.1028 1.04363 0.327211 -15.1961 0.321916 2.30297 15.4071 14.8525 -2.16364 -27.1554 0.0 0.0 -0.0 0.0 -0.0 -17.0042 32.2019 -0.566168 -21.7415 -0.270881 -3.30543 26.231 -10.7249 3.48133 16.2595 -0.0 -0.0 0.0 0.0 0.0 
3016.34214865 674.775 -1706.71731336 5.6784526851 50.3827012119 -7.53883144051 0.00303488 0.935349 3.89957 0.0112319 0.685513 3.95107 0.0635179 -0.155461 4.007 0.0414374 0.478808 3.98136 -17.4076 6.37559 -1.21344 -17.5967 12.9209 1.26557 -0.0 0.0 -0.0 -2.97476 20.147 -2.01337 -14.2604 -26.2459 64.3073 0.39507 -11.0734 0.0382965 -36.8792 -2.62554 3.82763 2.68236 2.05249 19.0408 -0.0 0.0 -0.0 11.2541 28.3492 -21.4088 -9.60272 29.4488 -65.8616 0.679097 18.5932 -0.111166 15.6994 -0.283586 1.97915 2.49539 1.38541 -16.365 0.0 0.0 0.0 12.3473 0.778742 1.40994 -14.648 0.320988 2.21889 18.4295 14.3548 -2.55367 -26.3022 0.0 0.0 -0.0 0.0 -0.0 -16.5318 32.6281 -1.8785 -24.4548 -0.216222 -3.71817 24.922 -13.2008 3.34331 15.1461 -0.0 -0.0 0.0 0.0 0.0 
2989.5759349 676.081 -1718.60089288 8.81849821367 51.2252780681 -10.7298777227 -0.145196 0.996184 4.01164 -0.136548 0.739111 4.06677 -0.078342 -0.137369 4.131 -0.101778 0.516209 4.10098 -17.8206 6.6779 -0.359876 -18.0245 13.0366 2.2271 -0.0 0.0 -0.0 -3.08976 19.5705 -2.29767 -13.2871 -26.9361 63.2147 0.465021 -12.9724 0.0528695 -36.4282 -2.57956 3.79251 2.8063 1.31965 19.632 -0.0 0.0 -0.0 11.287 27.9771 -21.5293 -12.0697 30.2053 -67.3273 0.607253 16.7422 -0.0893595 14.6206 -0.281558 1.84137 2.81122 0.902328 -18.7835 0.0 0.0 0.0 10.0475 -0.912303 2.82815 -18.9204 0.306923 2.8741 21.8607 15.8406 -2.99449 -25.2209 0.0 0.0 -0.0 0.0 -0.0 -13.1384 30.4241 -4.24224 -28.002 -0.115394 -4.25312 21.4392 -13.4812 2.92618 13.8561 -0.0 -0.0 0.0 0.0 0.0 
2947.19328001 680.398 -1731.94685262 10.0484457724 52.2438654825 -12.6708551318 0.0732906 0.761163 3.93072 0.08174 0.509701 3.9711 0.121675 -0.327951 3.99019 0.0995934 0.305825 3.99194 -20.7663 6.34764 0.442837 -20.9879 12.0237 3.17297 -0.0 0.0 -0.0 -3.09394 20.8945 -2.0397 -9.14987 -28.4432 60.607 0.694541 -18.9861 0.116141 -35.1135 -2.44711 3.68808 2.93802 1.14415 20.5 -0.0 0.0 -0.0 11.0111 26.8125 -21.0451 -18.5734 30.7964 -67.6695 0.624539 17.1911 -0.0944037 12.0524 -0.266298 1.51373 4.0241 -2.31757 -28.9577 0.0 0.0 0.0 7.92431 -4.26193 5.6609 -21.2637 0.27848 3.2325 27.003 14.2657 -3.59253 -25.6386 0.0 0.0 -0.0 0.0 -0.0 -10.1475 26.4302 -2.5543 -33.2849 0.0957063 -5.03607 20.0897 -11.1849 2.74872 10.6896 -0.0 -0.0 0.0 0.0 0.0 
2943.94870307 680.398 -1718.52385974 10.8751944235 55.5107211783 -13.6939422529 0.0732906 0.761163 3.93072 0.08174 0.509701 3.9711 0.121675 -0.327951 3.99019 0.0995934 0.305825 3.99194 -20.7663 6.34764 0.442837 -20.9879 12.0237 3.17297 -0.0 0.0 -0.0 -3.09394 20.8945 -2.0397 -9.14987 -28.4432 60.607 0.694541 -18.9861 0.116141 -35.1135 -2.44711 3.68808 2.93802 1.14415 20.5 -0.0 0.0 -0.0 11.0111 26.8125 -21.0451 -18.5734 30.7964 -67.6695 0.624539 17.1911 -0.0944037 12.0524 -0.266298 1.51373 4.0241 -2.31757 -28.9577 0.0 0.0 0.0 7.92431 -4.26193 5.6609 -21.2637 0.27848 3.2325 27.003 14.2657 -3.59253 -25.6386 0.0 0.0 -0.0 0.0 -0.0 -10.1475 26.4302 -2.5543 -33.2849 0.0957063 -5.03607 20.0897 -11.1849 2.74872 10.6896 -0.0 -0.0 0.0 0.0 0.0 
